<svg xmlns="http://www.w3.org/2000/svg" width="60" height="61" viewBox="0 0 60 61" fill="none">
  <path d="M54.5761 42.5693L46.648 24.0534C43.963 17.7716 39.0238 17.5184 35.7056 23.4961L30.9183 32.1335C28.4867 36.5155 23.9527 36.8955 20.8118 32.9694L20.2546 32.2602C16.987 28.1568 12.3771 28.6634 10.0214 33.3493L5.66473 42.088C2.59986 48.1671 7.03253 55.3354 13.8208 55.3354H46.1414C52.727 55.3354 57.1597 48.623 54.5761 42.5693ZM17.3163 19.874C19.3317 19.874 21.2645 19.0734 22.6895 17.6483C24.1146 16.2233 24.9152 14.2905 24.9152 12.2751C24.9152 10.2598 24.1146 8.32699 22.6895 6.90193C21.2645 5.47686 19.3317 4.67627 17.3163 4.67627C15.301 4.67627 13.3682 5.47686 11.9431 6.90193C10.5181 8.32699 9.71746 10.2598 9.71746 12.2751C9.71746 14.2905 10.5181 16.2233 11.9431 17.6483C13.3682 19.0734 15.301 19.874 17.3163 19.874Z" stroke="#ABDF75" stroke-width="2.67989" stroke-linecap="round" stroke-linejoin="round"/>
</svg>