<svg xmlns="http://www.w3.org/2000/svg" width="687" height="408" viewBox="0 0 687 408" fill="none">
  <g style="mix-blend-mode:multiply">
    <path d="M448.656 304.424L590.91 450H473.02L244.315 216.354C230.954 202.279 208.947 202.279 195.587 215.952L-33.1194 449.598H-103.067C-111.32 449.598 -118 442.761 -118 434.316V410.992L135.07 152.011C142.929 144.37 146.466 133.512 144.894 122.252C144.108 113.807 139.785 106.166 133.891 100.134L36.0424 0H153.932L336.268 186.595C343.342 193.834 352.773 197.453 362.204 197.453C371.635 197.453 381.066 193.834 388.14 186.595L570.476 0H686.793L449.836 242.493C443.941 248.928 439.225 256.568 437.654 265.013C434.51 279.491 438.832 293.968 448.656 304.424Z" fill="url(#paint0_linear_534_1751)"/>
  </g>
  <defs>
    <linearGradient id="paint0_linear_534_1751" x1="626.847" y1="78.9952" x2="430.101" y2="641.655" gradientUnits="userSpaceOnUse">
      <stop stop-color="#3DCDFF"/>
      <stop offset="0.886614" stop-color="#456BF8"/>
    </linearGradient>
  </defs>
</svg>